<?xml version="1.0" standalone="no"?><!DOCTYPE svg PUBLIC "-//W3C//DTD SVG 1.1//EN" "http://www.w3.org/Graphics/SVG/1.1/DTD/svg11.dtd"><svg class="icon" width="200px" height="115.84px" viewBox="0 0 1768 1024" version="1.1" xmlns="http://www.w3.org/2000/svg"><path d="M559.514472 561.372623c-55.406671 122.131169-134.251378 242.150803-271.627827 274.372823q-126.565392 29.688178-241.644034-28.843565a6.207912 6.334604 0.4 0 1-2.871688-2.956148c-6.165681-13.218207-4.223069-23.522497 3.336225-36.656243q172.976925-300.091316 346.629541-599.760325 23.818112-41.132697 41.048235-59.756432c94.934601-102.662819 214.996466-74.79056 282.565578 37.585318q56.715823 94.343372 110.559958 189.573588a1.562536 1.562536 0 0 0 2.744995-0.042231c35.178169-68.836032 72.38341-138.263294 115.669873-202.411719q20.735271-30.786176 38.30324-45.735842c67.780265-57.729359 169.04947-54.055289 229.692747 11.782363q24.198188 26.225261 50.634603 72.045565 62.332505 107.899425 125.171779 215.587696c9.037369 15.498665 16.512202 26.351953 19.46835 44.764536a3.167302 3.167302 0 0 1-2.576072 3.63184c-17.694661 3.167302-26.309723-2.660534-41.597234-14.062821-43.328693-32.306481-97.25729-44.088845-147.427355-18.919351-38.683316 19.42612-60.389893 50.803526-84.588081 92.696374q-67.949188 117.696946-136.911912 234.844893-24.409341 41.470542-54.09752 72.38341c-64.317348 66.89342-184.970442 56.082362-243.502185-13.556053q-9.079599-10.853289-38.007625-58.36282-50.719064-83.236699-98.439749-168.289317a1.435844 1.435844 0 0 0-2.533842 0.084461z m267.404758-206.043559q-6.968065-1.309152-10.811057-8.066063-56.631361-99.791131-114.86749-198.610956c-28.083412-47.720685-79.435936-88.13546-136.700758-86.953-73.734793 1.520305-115.036412 42.56854-150.721349 103.929739q-163.475019 281.129734-326.907807 562.301698-15.034127 25.845185-31.461867 50.930218-6.292373 9.586368 2.871687 14.865204c121.371016 69.93403 280.665196 39.401238 375.768721-60.601046 48.0163-50.46568 87.713153-127.410006 120.315248-190.840509a6.250143 6.292373 29.2 0 1 8.783985-2.533842c1.900381 1.140229 5.701144 5.067683 7.094757 7.390372q91.682838 155.408956 121.455477 204.354331c42.484079 69.807338 115.965487 97.172828 193.036505 68.836032 55.575594-20.439656 84.757004-75.761866 112.755954-123.609243q61.825737-105.745659 122.76463-211.913625c48.396376-84.208005 117.105716-139.107908 218.29046-97.552905q26.056339 10.726596 47.087224 29.77264a1.562536 1.562536 0 0 0 2.40715-1.900381q-76.564249-134.546993-156.338031-268.207142c-38.89447-65.204192-116.387794-106.590273-191.262816-76.141942-40.457005 16.42774-71.285412 52.154908-92.189606 87.839845Q891.743347 255.115626 837.392443 350.514765a9.881983 9.881983 0 0 1-10.473213 4.814299z" fill="#FFFFFF" /><path d="M826.91923 355.329064a9.881983 9.881983 0 0 0 10.473213-4.814299q54.350904-95.399139 110.897804-191.896276c20.904194-35.684937 51.732601-71.412105 92.189606-87.839845 74.875021-30.448331 152.368346 10.93775 191.262816 76.141942q79.773782 133.660148 156.338031 268.207142a1.562536 1.562536 0 0 1-2.40715 1.900381q-21.030886-19.046043-47.087224-29.77264c-101.184744-41.555003-169.894084 13.344899-218.29046 97.552905q-60.938892 106.167966-122.76463 211.913625c-27.998951 47.847377-57.18036 103.169587-112.755954 123.609243-77.071018 28.336796-150.552426 0.971306-193.036505-68.836032q-29.77264-48.945375-121.455477-204.354331c-1.393613-2.322688-5.194375-6.250143-7.094757-7.390372a6.250143 6.292373 29.2 0 0-8.783985 2.533842c-32.602096 63.430503-72.298949 140.374829-120.315248 190.840509-95.103524 100.002285-254.397704 130.535077-375.768721 60.601046q-9.164061-5.278837-2.871687-14.865204 16.42774-25.085033 31.461867-50.930218 163.432788-281.171964 326.907807-562.301698c35.684937-61.361199 76.986556-102.409434 150.721349-103.929739 57.264822-1.182459 108.617346 39.232315 136.700758 86.953q58.236128 98.819825 114.86749 198.610956 3.842993 6.756911 10.811057 8.066063z" fill="#1B9EFF" /><path d="M1531.538369 675.648882a170.696467 170.696467 0 0 1-170.696467 170.696468 170.696467 170.696467 0 0 1-170.696468-170.696468 170.696467 170.696467 0 0 1 170.696468-170.696467 170.696467 170.696467 0 0 1 170.696467 170.696467z m-14.696281-0.422306a155.831263 155.831263 0 0 0-155.831263-155.831263 155.831263 155.831263 0 0 0-155.831263 155.831263 155.831263 155.831263 0 0 0 155.831263 155.831262 155.831263 155.831263 0 0 0 155.831263-155.831262z" fill="#FFFFFF" /><path d="M1516.842088 675.226576a155.831263 155.831263 0 0 1-155.831263 155.831262 155.831263 155.831263 0 0 1-155.831263-155.831262 155.831263 155.831263 0 0 1 155.831263-155.831263 155.831263 155.831263 0 0 1 155.831263 155.831263z m-117.380216-72.594564a9.881983 9.881983 0 0 0-5.794051-12.71144l-1.900381-0.713698a9.881983 9.881983 0 0 0-12.715663 5.798274l-54.042619 144.534552a9.881983 9.881983 0 0 0 5.794051 12.719885l1.900381 0.709476a9.881983 9.881983 0 0 0 12.715662-5.798274l54.04262-144.534552z m-153.698613 66.428882a2.280458 2.280458 0 0 0-0.042231 3.293994l56.293516 54.519827q1.731458 1.646997 3.800763 0.506768 7.474833-4.054147 8.826215-12.120209a6.207912 6.292373 28.1 0 0-1.562536-5.278837l-33.657863-36.318397a3.547378 3.547378 0 0 1 0.168923-4.983222c8.234985-7.89714 56.377977-45.186843 23.395804-52.366061q-1.773689-0.380076-3.04061 0.844613l-54.181981 51.901524z m180.198374 53.970828l51.310294-48.691991a2.871687 2.913918 47.1 0 0 0.168923-4.011916q-23.311343-26.436415-49.494374-50.170065-6.207912-5.616682-16.807817-0.422307a7.728217 7.770448 54.6 0 0-2.111535 12.373593l36.107244 36.698474a4.054147 4.096377 45.6 0 1-0.084461 5.785605q-15.83651 15.287511-31.715252 31.377406-6.038989 6.123451-2.618303 13.97836a9.501906 9.501906 0 0 0 15.245281 3.082841z" fill="#1B9EFF" /><path d="M1382.511514 585.746916m9.256178 3.460744l1.898704 0.709896q9.256178 3.460743 5.795435 12.716921l-54.040837 144.538783q-3.460743 9.256178-12.716921 5.795435l-1.898703-0.709896q-9.256178-3.460743-5.795435-12.716922l54.040836-144.538782q3.460743-9.256178 12.716921-5.795435Z" fill="#FFFFFF" /><path d="M1245.763259 669.060894l54.181981-51.901524q1.266921-1.22469 3.04061-0.844613c32.982172 7.179218-15.160819 44.468921-23.395804 52.366061a3.547378 3.547378 0 0 0-0.168923 4.983222l33.657863 36.318397a6.207912 6.292373 28.1 0 1 1.562536 5.278837q-1.351382 8.066063-8.826215 12.120209-2.069304 1.140229-3.800763-0.506768l-56.293516-54.519827a2.280458 2.280458 0 0 1 0.042231-3.293994zM1477.271927 674.339731l-51.310294 48.691991a9.501906 9.501906 0 0 1-15.245281-3.082841q-3.420686-7.854909 2.618303-13.97836 15.878741-16.089895 31.715252-31.377406a4.054147 4.096377 45.6 0 0 0.084461-5.785605l-36.107244-36.698474a7.728217 7.770448 54.6 0 1 2.111535-12.373593q10.599904-5.194375 16.807817 0.422307 26.183031 23.73365 49.494374 50.170065a2.871687 2.913918 47.1 0 1-0.168923 4.011916z" fill="#FFFFFF" /></svg>